# File created by Blade
# Date/Time:  Wed Apr 08 17:04:14 2015
#---------------------------------------------------------
:version 1.10
:name HOM
:units
  mass 1.0
  length 1.000000
  angle deg
:documentation
     Acclaim Skeleton File
:root
   axis xyz
   order TX TY TZ RX RY RZ
   position 0.000000 0.000000 0.000000
   orientation 0 0 0
:bonedata
   begin
      id 1
      name Spine_dum
      direction 0.000000 1.000000 0.000000
      length 5.893853
      axis 0.0 0.0 0.0 xyz
   end
   begin
      id 2
      name LeftUpLeg_dum
      direction 1.000000 0.000000 0.000000
      length 3.697939
      axis 0.0 0.0 0.0 xyz
   end
   begin
      id 3
      name RightUpLeg_dum
      direction -1.000000 0.000000 0.000000
      length 3.697939
      axis 0.0 0.0 0.0 xyz
   end
   begin
      id 4
      name Spine
      direction 0.000000 1.000000 0.000000
      length 0.000000
      axis 0.0 0.0 0.0 xyz
      dof rx ry rz
   end
   begin
      id 5
      name Spine_dum1
      direction 0.000000 1.000000 0.000000
      length 16.447146
      axis 0.0 0.0 0.0 xyz
   end
   begin
      id 6
      name Spine_dum2
      direction 0.000000 1.000000 0.000000
      length 10.900383
      axis 0.0 0.0 0.0 xyz
   end
   begin
      id 7
      name Spine_dum3
      direction 0.000000 1.000000 0.000000
      length 10.900383
      axis 0.0 0.0 0.0 xyz
   end
   begin
      id 8
      name Head
      direction 0.000000 1.000000 0.000000
      length 4.527550
      axis 0.0 0.0 0.0 xyz
      dof rx ry rz
   end
   begin
      id 9
      name LeftShoulder
      direction 1.000000 0.000000 0.000000
      length 8.219464
      axis 0.0 0.0 -90.0 xyz
      dof rx ry rz
   end
   begin
      id 10
      name LeftArm
      direction 1.000000 0.000000 0.000000
      length 11.094937
      axis 0.0 0.0 -90.0 xyz
      dof rx ry rz
   end
   begin
      id 11
      name LeftForeArm
      direction 1.000000 0.000000 0.000000
      length 9.103875
      axis 0.0 0.0 -90.0 xyz
      dof ry rz rx
   end
   begin
      id 12
      name LeftHand
      direction 0.000000 0.000000 0.000000
      length 0.000000
      axis 0.0 0.0 -90.0 xyz
      dof rx ry rz
   end
   begin
      id 13
      name LeftHand_dum1
      direction 0.000000 0.000000 0.000000
      length 0.000000
      axis 0.0 0.0 -90.0 xyz
   end
   begin
      id 14
      name LeftHand_dum2
      direction 1.000000 0.000000 0.000000
      length 3.937000
      axis 0.0 0.0 -90.0 xyz
   end
   begin
      id 15
      name LeftHandThumb1
      direction 0.000000 0.000000 1.000000
      length 3.937000
      axis 0.0 0.0 -90.0 xyz
      dof rx rz ry
   end
   begin
      id 16
      name RightShoulder
      direction -1.000000 0.000000 0.000000
      length 8.219464
      axis 0.0 0.0 90.0 xyz
      dof rx ry rz
   end
   begin
      id 17
      name RightArm
      direction -1.000000 0.000000 0.000000
      length 11.094937
      axis 0.0 0.0 90.0 xyz
      dof rx ry rz
   end
   begin
      id 18
      name RightForeArm
      direction -1.000000 0.000000 0.000000
      length 9.103875
      axis 0.0 0.0 90.0 xyz
      dof ry rz rx
   end
   begin
      id 19
      name RightHand
      direction 0.000000 0.000000 0.000000
      length 0.000000
      axis 0.0 0.0 90.0 xyz
      dof rx ry rz
   end
   begin
      id 20
      name RightHand_dum1
      direction 0.000000 0.000000 0.000000
      length 0.000000
      axis 0.0 0.0 90.0 xyz
   end
   begin
      id 21
      name RightHand_dum2
      direction -1.000000 0.000000 0.000000
      length 3.937000
      axis 0.0 0.0 90.0 xyz
   end
   begin
      id 22
      name RightHandThumb1
      direction 0.000000 0.000000 1.000000
      length 3.937000
      axis 0.0 0.0 90.0 xyz
      dof rx rz ry
   end
   begin
      id 23
      name LeftUpLeg
      direction 0.000000 -1.000000 0.000000
      length 16.181467
      axis 0.0 0.0 0.0 xyz
      dof rx ry rz
   end
   begin
      id 24
      name LeftLeg
      direction 0.000000 -1.000000 0.000000
      length 16.501392
      axis 0.0 0.0 0.0 xyz
      dof rx ry rz
   end
   begin
      id 25
      name LeftFoot
      direction 0.000000 -0.258819 0.965926
      length 6.408245
      axis 15.0 0.0 0.0 xyz
      dof rx ry rz
   end
   begin
      id 26
      name LeftToeBase
      direction 0.000000 0.000000 1.000000
      length 2.952750
      axis 0.0 0.0 0.0 xyz
      dof rx ry rz
   end
   begin
      id 27
      name RightUpLeg
      direction 0.000000 -1.000000 0.000000
      length 16.181467
      axis 0.0 0.0 0.0 xyz
      dof rx ry rz
   end
   begin
      id 28
      name RightLeg
      direction 0.000000 -1.000000 0.000000
      length 16.501392
      axis 0.0 0.0 0.0 xyz
      dof rx ry rz
   end
   begin
      id 29
      name RightFoot
      direction 0.000000 -0.258819 0.965926
      length 6.408245
      axis 15.0 0.0 0.0 xyz
      dof rx ry rz
   end
   begin
      id 30
      name RightToeBase
      direction 0.000000 0.000000 1.000000
      length 2.952750
      axis 0.0 0.0 0.0 xyz
      dof rx ry rz
   end
:hierarchy
   begin
      root Spine_dum LeftUpLeg_dum RightUpLeg_dum
      Spine_dum Spine
      LeftUpLeg_dum LeftUpLeg
      RightUpLeg_dum RightUpLeg
      Spine Spine_dum1 Spine_dum2 Spine_dum3
      Spine_dum1 Head
      Spine_dum2 LeftShoulder
      Spine_dum3 RightShoulder
      LeftShoulder LeftArm
      LeftArm LeftForeArm
      LeftForeArm LeftHand
      LeftHand LeftHand_dum1 LeftHand_dum2
      LeftHand_dum1 LeftHandThumb1
      RightShoulder RightArm
      RightArm RightForeArm
      RightForeArm RightHand
      RightHand RightHand_dum1 RightHand_dum2
      RightHand_dum1 RightHandThumb1
      LeftUpLeg LeftLeg
      LeftLeg LeftFoot
      LeftFoot LeftToeBase
      RightUpLeg RightLeg
      RightLeg RightFoot
      RightFoot RightToeBase
   end

# File created by Blade
# Date/Time:  Wed Apr 08 17:04:22 2015
# Frame Rate: 120.000 fps
#------------------------------------------------------
:FULLY-SPECIFIED
:DEGREES
1
root 4.252278 36.230440 2.946035 -141.629839 -84.542751 166.246536
Spine -23.091101 0.142230 -5.391706
Head 11.134519 2.136620 4.427567
LeftShoulder -5.677688 12.676595 30.189295
LeftArm 12.114427 -35.375402 -36.195694
LeftForeArm 25.154874 -0.000000 5.643146
LeftHand -12.965577 -0.000000 -10.872223
LeftHandThumb1 -26.253704 0.000000 33.147579
RightShoulder -24.673036 -45.335050 -10.944513
RightArm 50.854993 46.495523 51.085614
RightForeArm 5.851568 -0.000000 -0.687596
RightHand -2.114645 -0.000000 14.476174
RightHandThumb1 -24.326973 -0.000000 -32.862282
LeftUpLeg -26.237889 10.168878 -0.709000
LeftLeg 12.842300 -0.000000 -0.000000
LeftFoot -11.979676 9.958620 -13.903017
LeftToeBase 8.526046 -0.000000 -0.000000
RightUpLeg -27.492060 -3.239335 -8.111095
RightLeg 11.042795 -0.000000 -0.000000
RightFoot -10.645993 -2.438993 19.219040
RightToeBase 13.070917 -0.000000 -0.000000
2
root 4.255283 36.229885 2.950328 -141.537348 -84.544441 166.165395
Spine -23.096301 0.107108 -5.377401
Head 11.101310 2.046907 4.421866
LeftShoulder -5.710864 12.843514 30.086676
LeftArm 12.159469 -35.162795 -36.293133
LeftForeArm 24.951545 0.000000 6.263880
LeftHand -13.173374 -0.000000 -10.439515
LeftHandThumb1 -26.253704 0.000000 33.147579
RightShoulder -24.693735 -45.361637 -10.897569
RightArm 50.746557 46.388212 50.979346
RightForeArm 6.078264 -0.000000 -0.417001
RightHand -2.287800 -0.000000 14.382174
RightHandThumb1 -24.326973 -0.000000 -32.862282
LeftUpLeg -26.267584 10.139742 -0.714701
LeftLeg 12.870510 -0.000000 -0.000000
LeftFoot -12.007007 9.971473 -13.927438
LeftToeBase 8.561229 -0.000000 -0.000000
RightUpLeg -27.521124 -3.267698 -8.116732
RightLeg 11.066494 -0.000000 -0.000000
RightFoot -10.635615 -2.419647 19.230797
RightToeBase 13.002404 -0.000000 -0.000000
3
root 4.257920 36.229533 2.954915 -141.482968 -84.540077 166.121308
Spine -23.100082 0.089208 -5.362685
Head 11.061994 1.946331 4.399088
LeftShoulder -5.699969 12.876534 29.978457
LeftArm 11.986231 -34.810628 -36.287143
LeftForeArm 24.644732 -0.000000 7.072274
LeftHand -13.476718 -0.000000 -10.148988
LeftHandThumb1 -26.253704 0.000000 33.147579
RightShoulder -24.735867 -45.376370 -10.845754
RightArm 50.656985 46.303879 50.908914
RightForeArm 6.076679 -0.000000 -0.155599
RightHand -2.221340 -0.000000 14.435119
RightHandThumb1 -24.326973 -0.000000 -32.862282
LeftUpLeg -26.287500 10.129099 -0.726565
LeftLeg 12.879402 -0.000000 -0.000000
LeftFoot -12.004793 9.973884 -13.936170
LeftToeBase 8.529600 -0.000000 -0.000000
RightUpLeg -27.546940 -3.292011 -8.119519
RightLeg 11.086506 -0.000000 -0.000000
RightFoot -10.637467 -2.401296 19.220698
RightToeBase 13.079970 -0.000000 -0.000000
4
root 4.260945 36.228384 2.960603 -141.434498 -84.524517 166.080690
Spine -23.096876 0.088467 -5.351001
Head 11.007553 1.852750 4.360331
LeftShoulder -5.689492 12.879394 29.854125
LeftArm 11.789171 -34.451948 -36.280216
LeftForeArm 24.463262 0.000000 7.948945
LeftHand -13.669442 -0.000000 -9.781212
LeftHandThumb1 -26.253704 0.000000 33.147579
RightShoulder -24.806076 -45.389935 -10.776705
RightArm 50.573372 46.208160 50.837403
RightForeArm 6.051896 -0.000000 0.131062
RightHand -2.121470 -0.000000 14.407996
RightHandThumb1 -24.326973 -0.000000 -32.862282
LeftUpLeg -26.311688 10.143732 -0.753510
LeftLeg 12.900547 -0.000000 -0.000000
LeftFoot -12.014984 9.975065 -13.921148
LeftToeBase 8.524492 -0.000000 -0.000000
RightUpLeg -27.579648 -3.317320 -8.128915
RightLeg 11.116327 -0.000000 -0.000000
RightFoot -10.628311 -2.366362 19.212704
RightToeBase 12.998211 -0.000000 -0.000000
